<?xml version="1.0" standalone="no"?>
<!DOCTYPE svg PUBLIC "-//W3C//DTD SVG 20010904//EN"
 "http://www.w3.org/TR/2001/REC-SVG-20010904/DTD/svg10.dtd">
<svg version="1.0" xmlns="http://www.w3.org/2000/svg"
 width="228.000000pt" height="198.000000pt" viewBox="0 0 228.000000 198.000000"
 preserveAspectRatio="xMidYMid meet">

<g transform="translate(0.000000,198.000000) scale(0.100000,-0.100000)"
fill="#000000" stroke="none">
<path d="M937 1944 c-4 -4 -42 -6 -86 -5 -47 1 -82 -2 -86 -9 -3 -6 -10 -8
-15 -5 -5 3 -29 0 -54 -7 -38 -10 -43 -14 -34 -27 10 -13 10 -14 -2 -3 -16 14
-50 16 -50 3 0 -5 -6 -8 -12 -8 -20 1 -98 -35 -98 -45 0 -5 -4 -7 -9 -3 -6 3
-14 -3 -20 -12 -6 -10 -11 -14 -11 -10 0 4 -9 3 -21 -3 -17 -10 -18 -14 -7
-28 10 -12 10 -14 1 -8 -8 4 -13 2 -13 -6 0 -10 -3 -9 -10 2 -5 8 -12 11 -16
7 -4 -3 -1 -14 6 -22 11 -13 11 -16 -1 -13 -8 2 -13 -3 -11 -10 1 -8 -2 -11
-8 -7 -8 5 -7 11 1 21 23 27 -17 15 -43 -13 -14 -16 -42 -41 -62 -56 -20 -16
-34 -32 -31 -37 3 -5 -8 -18 -25 -30 -22 -16 -29 -27 -25 -41 4 -11 2 -19 -5
-19 -6 0 -8 5 -4 13 5 8 2 7 -10 -2 -9 -8 -14 -21 -11 -30 3 -8 3 -12 -1 -8
-4 3 -20 -14 -36 -40 -40 -63 -50 -90 -35 -97 7 -3 6 -5 -4 -5 -13 -1 -44 -81
-44 -116 0 -5 -4 -13 -9 -17 -11 -8 -14 -279 -4 -348 4 -25 10 -65 13 -90 4
-25 12 -48 18 -52 7 -4 8 -8 3 -8 -5 0 -3 -6 3 -13 6 -8 8 -16 6 -19 -3 -3 -1
-18 6 -34 6 -16 16 -40 21 -54 11 -26 15 -34 55 -109 26 -50 29 -54 102 -129
29 -31 56 -50 62 -46 7 4 10 1 7 -7 -5 -14 32 -49 96 -92 30 -20 43 -24 53
-15 10 8 13 6 13 -6 0 -19 56 -56 85 -56 17 0 18 2 5 11 -13 9 -13 10 0 6 8
-2 15 -10 15 -17 0 -13 75 -45 75 -32 0 4 4 1 8 -5 4 -7 21 -14 38 -16 16 -2
36 -7 43 -11 7 -4 15 -5 18 -2 3 3 12 1 18 -4 14 -12 214 -42 227 -34 4 3 8
70 8 150 l0 144 -37 2 c-53 2 -65 4 -85 13 -10 4 -29 8 -43 9 -14 0 -25 4 -25
8 0 3 -23 14 -51 23 -43 15 -53 15 -61 4 -8 -11 -9 -10 -5 3 3 9 -1 19 -9 22
-10 4 -13 1 -9 -7 4 -6 1 -5 -7 3 -26 31 -86 62 -94 49 -5 -9 -10 -6 -15 8 -4
11 -22 27 -41 36 -19 9 -43 26 -53 39 -19 22 -19 22 10 -1 17 -14 4 1 -28 33
-31 32 -62 67 -68 77 -5 11 -14 17 -19 14 -6 -3 -7 0 -5 8 3 7 -3 22 -15 32
-11 10 -20 24 -20 31 0 7 -6 12 -12 10 -7 -1 -10 -1 -5 1 12 7 8 37 -7 59 -8
11 -18 38 -21 60 -4 21 -11 44 -15 49 -9 10 -6 309 2 335 3 8 8 23 12 32 4 9
4 22 0 29 -4 7 -3 9 4 5 7 -4 13 7 18 29 3 19 10 38 16 41 5 3 6 15 3 27 -5
17 -4 19 4 7 10 -14 13 -8 10 16 0 4 3 10 8 13 19 13 54 71 48 81 -3 6 1 7 9
4 10 -4 16 -1 16 7 0 13 88 99 102 99 16 0 97 58 91 64 -4 4 0 4 9 1 8 -3 23
2 33 12 10 10 21 17 24 16 12 -5 41 9 36 17 -3 4 3 6 12 4 10 -3 54 4 97 16
44 11 96 20 117 20 21 0 40 4 44 10 3 5 13 6 21 3 23 -8 34 15 34 70 l0 47
-58 0 c-32 0 -62 -3 -65 -6z m-12 -34 c3 -5 2 -10 -4 -10 -5 0 -13 5 -16 10
-3 6 -2 10 4 10 5 0 13 -4 16 -10z m65 -70 c-20 -13 -33 -13 -25 0 3 6 14 10
23 10 15 0 15 -2 2 -10z m-83 -6 c-3 -3 -12 -4 -19 -1 -8 3 -5 6 6 6 11 1 17
-2 13 -5z m-187 -38 c0 -2 -7 -7 -16 -10 -8 -3 -12 -2 -9 4 6 10 25 14 25 6z
m-313 -198 c-3 -8 -6 -5 -6 6 -1 11 2 17 5 13 3 -3 4 -12 1 -19z m-206 -101
c-10 -9 -11 -8 -5 6 3 10 9 15 12 12 3 -3 0 -11 -7 -18z m-26 -6 c-3 -6 -11
-8 -17 -5 -6 4 -5 9 3 15 16 10 23 4 14 -10z m136 -34 c-10 -9 -11 -8 -5 6 3
10 9 15 12 12 3 -3 0 -11 -7 -18z m-64 -229 c-3 -8 -6 -5 -6 6 -1 11 2 17 5
13 3 -3 4 -12 1 -19z m10 -200 c-3 -8 -6 -5 -6 6 -1 11 2 17 5 13 3 -3 4 -12
1 -19z m-131 -377 c0 -11 -5 -17 -13 -14 -10 4 -11 9 -2 19 15 18 15 18 15 -5z
m84 -151 c0 -5 -5 -10 -11 -10 -5 0 -7 5 -4 10 3 6 8 10 11 10 2 0 4 -4 4 -10z
m385 -40 c3 -5 1 -10 -4 -10 -6 0 -11 5 -11 10 0 6 2 10 4 10 3 0 8 -4 11 -10z
m229 -69 c3 -5 -1 -14 -8 -20 -10 -9 -16 -9 -21 -1 -4 6 -1 9 7 8 7 -2 12 3
11 10 -3 14 3 16 11 3z m-450 -87 c3 -8 2 -12 -4 -9 -6 3 -10 10 -10 16 0 14
7 11 14 -7z m126 -44 c0 -5 -2 -10 -4 -10 -3 0 -8 5 -11 10 -3 6 -1 10 4 10 6
0 11 -4 11 -10z m175 -78 c-3 -3 -11 0 -18 7 -9 10 -8 11 6 5 10 -3 15 -9 12
-12z m222 -88 c-3 -3 -12 -4 -19 -1 -8 3 -5 6 6 6 11 1 17 -2 13 -5z"/>
<path d="M845 1730 c-116 -17 -246 -91 -344 -196 -107 -114 -151 -232 -151
-404 0 -168 41 -296 130 -408 96 -121 300 -231 473 -257 l47 -7 0 176 0 176
-28 0 c-36 0 -125 26 -177 52 -76 39 -123 85 -161 163 -36 73 -36 74 -32 182
3 90 8 117 30 165 59 127 178 203 351 223 l57 7 0 69 0 69 -72 -1 c-40 -1 -96
-5 -123 -9z"/>
<path d="M1588 1366 c-2 -37 -7 -50 -17 -48 -9 2 -11 -3 -7 -15 6 -17 5 -17
-7 -1 -12 16 -14 14 -15 -17 -1 -31 1 -34 25 -32 l26 2 -2 -92 c-3 -134 4
-162 46 -180 48 -19 107 -14 111 11 2 10 -2 22 -10 27 -7 5 -8 9 -2 9 6 0 11
7 11 15 0 9 -4 11 -11 6 -7 -6 -18 -5 -28 3 -13 10 -17 31 -19 107 l-1 94 25
-3 c14 -1 29 3 33 9 5 8 3 10 -7 4 -11 -6 -12 -5 -1 6 23 25 15 49 -18 49 -29
0 -30 1 -30 50 l0 50 -50 -1 -49 -2 -3 -51z m42 -106 c0 -5 -2 -10 -4 -10 -3
0 -8 5 -11 10 -3 6 -1 10 4 10 6 0 11 -4 11 -10z m90 -235 c0 -2 -10 -9 -22
-15 -22 -11 -22 -10 -4 4 21 17 26 19 26 11z m-50 -19 c0 -2 -7 -7 -16 -10 -8
-3 -12 -2 -9 4 6 10 25 14 25 6z"/>
<path d="M1350 1327 c-26 -9 -35 -18 -34 -34 0 -18 -2 -20 -13 -12 -7 6 -14 9
-14 5 -3 -14 -7 -26 -9 -28 -1 -2 -3 -11 -5 -21 -4 -23 20 -33 40 -17 10 9 15
9 15 1 0 -20 20 -11 30 13 12 33 59 42 83 14 16 -20 16 -21 -3 -38 -12 -10
-43 -21 -71 -25 -54 -8 -86 -29 -91 -60 -2 -11 -7 -23 -11 -26 -5 -3 -5 -23
-2 -43 5 -26 12 -36 21 -32 8 3 14 1 14 -4 0 -6 -5 -10 -11 -10 -8 0 -7 -5 2
-16 7 -8 21 -13 31 -11 10 3 16 1 12 -4 -3 -5 11 -9 30 -9 19 0 37 4 40 9 3 5
35 8 72 6 l66 -2 -6 41 c-3 23 -7 92 -8 154 -2 125 -4 130 -74 150 -50 14 -59
14 -104 -1z m160 -42 c7 -9 8 -15 2 -15 -5 0 -12 7 -16 15 -3 8 -4 15 -2 15 2
0 9 -7 16 -15z m-196 -34 c3 -5 -2 -15 -12 -22 -15 -12 -16 -12 -5 2 7 9 10
19 6 22 -3 4 -4 7 0 7 3 0 8 -4 11 -9z m138 -121 c-4 -26 -2 -29 14 -25 12 4
11 1 -3 -6 -23 -12 -30 -33 -15 -42 4 -2 1 -2 -7 0 -8 2 -11 -2 -7 -12 4 -11
2 -14 -7 -8 -6 4 -21 6 -33 5 -45 -6 -58 53 -16 74 12 6 19 13 16 16 -3 3 -1
9 5 13 6 3 11 1 11 -5 0 -15 25 -7 26 8 2 21 4 23 12 18 5 -3 7 -19 4 -36z
m-98 13 c-5 -5 -12 -12 -16 -18 -4 -6 -8 -2 -8 8 0 9 7 17 17 17 9 0 12 -3 7
-7z m-52 -39 c-9 -16 -10 -14 -9 8 1 15 6 23 11 18 4 -4 4 -16 -2 -26z m9 -38
c5 3 9 0 9 -6 0 -15 -23 -7 -26 8 -1 7 0 8 3 2 2 -5 9 -8 14 -4z m73 -49 c-3
-8 -12 -14 -21 -14 -13 0 -13 2 3 14 10 7 19 13 21 13 1 0 0 -6 -3 -13z"/>
<path d="M1833 1322 c-33 -17 -64 -53 -72 -82 -2 -8 -6 -44 -8 -79 -6 -78 19
-150 45 -129 13 11 14 10 8 -10 -8 -23 0 -28 64 -46 19 -6 21 -5 10 3 -8 6
-10 11 -4 11 5 0 15 -5 21 -11 8 -8 19 -6 41 5 16 8 32 13 35 10 3 -4 13 10
21 30 8 20 18 36 21 36 3 0 1 -9 -5 -20 -6 -11 -8 -20 -5 -20 6 0 35 63 35 75
0 3 -13 5 -30 5 -18 0 -49 -14 -80 -36 -35 -25 -48 -31 -43 -18 5 13 3 16 -10
11 -9 -3 -19 -2 -22 4 -4 5 -11 7 -16 4 -5 -3 -6 1 -3 9 4 10 1 16 -7 16 -12
0 -12 2 0 9 8 5 12 18 9 29 -3 11 -1 26 4 33 7 11 8 9 6 -6 -3 -19 3 -20 92
-20 l95 0 2 40 c2 31 1 36 -8 25 -8 -12 -9 -10 -4 9 8 27 -13 73 -29 64 -6 -3
-8 -3 -4 2 8 9 -11 50 -19 41 -3 -3 -12 1 -20 9 -19 20 -81 18 -120 -3z m107
-22 c0 -5 -2 -10 -4 -10 -3 0 -8 5 -11 10 -3 6 -1 10 4 10 6 0 11 -4 11 -10z
m-100 -34 c0 -2 -7 -9 -15 -16 -13 -11 -14 -10 -9 4 5 14 24 23 24 12z m100
-27 c7 -15 10 -31 9 -35 -2 -3 -28 -7 -56 -8 -46 -1 -53 1 -53 18 0 29 25 51
59 52 24 1 32 -5 41 -27z m-147 -4 c-7 -21 -12 -19 -10 4 0 11 5 18 9 15 4 -3
5 -11 1 -19z m182 -75 c-3 -5 -12 -10 -18 -10 -7 0 -6 4 3 10 19 12 23 12 15
0z m-165 -94 c0 -3 -4 -8 -10 -11 -5 -3 -10 -1 -10 4 0 6 5 11 10 11 6 0 10
-2 10 -4z m180 -2 c0 -8 -19 -13 -24 -6 -3 5 1 9 9 9 8 0 15 -2 15 -3z m-145
-53 c-6 -5 -25 10 -25 20 0 5 6 4 14 -3 8 -7 12 -15 11 -17z"/>
<path d="M2172 1308 l-32 -33 0 28 c0 25 -3 27 -40 27 l-40 0 0 -186 0 -185
43 3 42 3 0 117 c0 65 4 118 8 118 5 0 5 5 2 10 -3 6 0 10 7 10 7 0 21 10 33
23 11 13 16 17 11 10 -6 -10 -2 -13 18 -13 25 0 26 3 26 50 0 45 -2 50 -23 50
-12 0 -37 -15 -55 -32z m42 -6 c3 -5 -1 -9 -9 -9 -8 0 -12 4 -9 9 3 4 7 8 9 8
2 0 6 -4 9 -8z m-48 -53 c19 -22 19 -22 -3 -8 -13 8 -23 17 -23 21 0 12 6 9
26 -13z"/>
<path d="M844 1319 c-3 -6 -1 -15 6 -19 7 -4 10 -12 6 -18 -8 -13 4 -43 14
-37 5 3 12 1 15 -5 4 -6 3 -9 -2 -8 -7 3 -15 -7 -12 -14 0 -2 3 -21 5 -43 3
-22 9 -42 15 -43 5 -2 6 -8 3 -13 -3 -6 0 -17 7 -25 6 -8 9 -17 5 -21 -3 -3 2
-15 11 -26 11 -13 12 -17 4 -12 -11 6 -13 4 -8 -9 4 -10 7 -26 7 -37 0 -16 7
-19 50 -19 48 0 50 1 51 28 2 32 5 55 8 62 4 7 10 39 20 90 5 25 9 34 10 21 1
-19 5 -22 24 -18 20 5 20 5 5 -7 -23 -17 -22 -24 0 -44 10 -10 12 -13 4 -7
-12 8 -14 4 -9 -20 4 -17 9 -47 13 -67 6 -36 8 -38 44 -38 45 0 64 19 58 59
-2 17 -1 28 3 25 5 -2 13 15 19 38 6 24 13 51 16 61 3 9 1 17 -5 17 -6 0 -11
4 -11 10 0 5 6 7 14 4 12 -5 27 36 31 81 0 6 4 16 9 23 15 24 -2 42 -39 42
-30 0 -37 -5 -46 -27 -6 -16 -11 -47 -12 -70 -1 -22 -5 -39 -9 -37 -4 3 -7 -4
-6 -13 0 -10 -5 -31 -10 -48 l-10 -30 -1 27 c-1 15 -6 30 -11 33 -6 4 -8 16
-4 28 7 22 7 22 -15 3 l-22 -20 16 30 c17 33 19 54 6 54 -5 0 -8 15 -7 33 1
32 0 32 -44 32 -44 0 -45 0 -44 -32 1 -18 -2 -33 -8 -33 -5 0 -6 -9 -3 -20 3
-11 2 -20 -4 -20 -5 0 -10 -8 -10 -17 0 -10 -4 -36 -9 -58 l-8 -40 -9 40 c-4
22 -9 47 -11 55 -13 64 -25 113 -29 121 -9 13 -72 11 -81 -2z m382 -98 c-9
-14 -26 -14 -26 0 0 5 5 7 12 3 8 -5 9 -1 4 12 -5 14 -4 16 5 7 6 -6 8 -16 5
-22z m-196 -41 c0 -5 -8 -10 -17 -10 -15 0 -16 2 -3 10 19 12 20 12 20 0z m10
-50 c0 -5 -5 -10 -11 -10 -5 0 -7 5 -4 10 3 6 8 10 11 10 2 0 4 -4 4 -10z
m180 4 c0 -8 -19 -13 -24 -6 -3 5 1 9 9 9 8 0 15 -2 15 -3z m-16 -49 c-4 -8
-11 -15 -16 -15 -6 0 -5 6 2 15 7 8 14 15 16 15 2 0 1 -7 -2 -15z"/>
</g>
</svg>
