<?xml version="1.0" standalone="no"?>
<!DOCTYPE svg PUBLIC "-//W3C//DTD SVG 20010904//EN"
 "http://www.w3.org/TR/2001/REC-SVG-20010904/DTD/svg10.dtd">
<svg version="1.0" xmlns="http://www.w3.org/2000/svg"
 width="560.000000pt" height="482.000000pt" viewBox="0 0 560.000000 482.000000"
 preserveAspectRatio="xMidYMid meet">

<g transform="translate(0.000000,482.000000) scale(0.100000,-0.100000)"
fill="#000000" stroke="none">
<path d="M2596 4348 c-551 -48 -1083 -340 -1415 -777 -185 -242 -319 -533
-375 -811 l-23 -115 -92 -3 -91 -3 0 -314 0 -315 93 0 93 0 18 -92 c38 -203
154 -488 272 -671 165 -254 388 -475 637 -629 638 -397 1452 -406 2099 -25
493 290 849 795 958 1360 l11 57 95 0 94 0 0 315 0 315 -93 0 -94 0 -13 73
c-20 114 -74 292 -125 411 -348 814 -1165 1302 -2049 1224z m428 -93 c437 -57
819 -246 1131 -559 251 -252 417 -547 506 -896 38 -151 38 -160 -4 -160 l-32
0 -18 87 c-144 700 -708 1271 -1408 1427 -722 160 -1457 -105 -1900 -686 -178
-233 -291 -489 -355 -805 -4 -19 -11 -23 -39 -23 -19 0 -35 2 -35 5 0 30 50
222 82 314 182 532 590 963 1109 1170 145 58 321 106 463 125 137 19 361 19
500 1z m66 -160 c615 -109 1126 -530 1361 -1122 29 -73 89 -288 89 -319 0 -12
-34 -14 -209 -14 l-209 0 -7 33 c-15 68 -59 186 -103 272 -280 561 -890 859
-1504 734 -327 -66 -623 -252 -824 -518 -78 -104 -185 -315 -218 -431 l-24
-85 -212 -3 c-198 -2 -211 -1 -206 15 3 10 14 57 25 105 66 281 228 577 438
798 287 302 644 486 1060 545 126 18 412 13 543 -10z m-30 -474 c394 -91 725
-350 903 -706 38 -77 104 -262 95 -270 -3 -3 -235 -4 -516 -3 l-511 3 161 143
161 142 83 0 84 0 0 80 0 80 -55 0 c-30 0 -55 4 -55 9 0 19 -84 102 -148 146
-38 25 -107 62 -153 80 l-84 34 -3 41 -3 40 -235 0 -234 0 0 -39 c0 -37 -2
-39 -47 -56 -137 -51 -266 -136 -327 -216 -29 -37 -33 -39 -88 -39 l-58 0 0
-80 0 -80 93 0 92 -1 159 -142 159 -142 -256 -3 c-140 -1 -373 -1 -516 0
l-260 3 34 102 c158 471 555 807 1050 889 113 19 364 11 475 -15z m410 -611
l0 -30 -695 0 -695 0 0 30 0 30 695 0 695 0 0 -30z m1440 -685 l0 -255 -2130
0 -2130 0 0 255 0 255 2130 0 2130 0 0 -255z m-3960 -336 c0 -37 51 -221 85
-311 177 -457 493 -803 928 -1019 237 -117 476 -176 752 -186 181 -7 311 5
484 43 633 141 1162 625 1359 1244 16 52 38 130 47 173 l17 77 35 0 35 0 -7
-42 c-4 -24 -23 -97 -41 -162 -286 -999 -1313 -1597 -2319 -1352 -498 121
-935 444 -1205 891 -98 162 -188 389 -228 574 l-20 91 39 0 c33 0 39 -3 39
-21z m520 -61 c33 -113 136 -315 214 -419 506 -670 1491 -734 2082 -133 163
165 269 354 350 622 2 9 54 12 214 12 l210 0 -6 -27 c-101 -454 -337 -821
-702 -1091 -431 -319 -997 -422 -1527 -277 -604 164 -1091 659 -1250 1270 -14
54 -25 103 -25 111 0 12 37 14 208 14 l208 0 24 -82z m1120 -58 l0 -140 -95 0
c-92 0 -95 -1 -95 -22 0 -19 -13 -28 -78 -53 -101 -39 -161 -38 -264 4 -107
43 -189 43 -293 0 -41 -17 -80 -29 -88 -26 -28 10 -167 318 -167 368 0 5 218
9 540 9 l540 0 0 -140z m290 0 l0 -140 -105 0 -105 0 0 140 0 140 105 0 105 0
0 -140z m1164 88 c-21 -72 -72 -190 -118 -272 -37 -67 -39 -68 -72 -61 -19 3
-65 19 -103 35 -99 42 -184 42 -289 -1 -101 -42 -174 -43 -255 -6 -48 22 -57
30 -57 51 l0 26 -95 0 -95 0 0 140 0 140 549 0 550 0 -15 -52z m-2001 -330
c60 -26 85 -31 152 -32 67 0 90 4 139 27 32 15 60 27 62 27 2 0 4 -11 4 -25
l0 -25 375 0 c369 0 375 0 375 20 0 20 1 20 38 4 20 -9 69 -23 107 -29 39 -7
61 -13 50 -14 -11 -1 -47 -15 -80 -31 -85 -42 -153 -42 -238 2 -54 28 -72 32
-137 32 -64 0 -85 -5 -140 -32 -89 -44 -151 -44 -240 0 -54 26 -77 32 -135 32
-59 1 -80 -4 -136 -32 -89 -44 -155 -44 -241 -1 -78 39 -149 47 -218 25 -41
-13 -55 -14 -66 -5 -21 18 -13 29 31 46 22 8 56 21 75 28 62 25 143 19 223
-17z m1697 2 c38 -16 80 -30 94 -30 44 0 29 -14 -49 -48 -99 -43 -157 -43
-245 -1 -35 16 -89 34 -120 38 -30 5 -44 9 -30 10 14 1 54 15 90 31 91 41 167
41 260 0z m-1755 -113 c50 -26 72 -31 130 -31 60 0 80 5 135 34 90 46 151 46
246 0 97 -48 172 -48 269 0 95 45 155 46 245 0 94 -47 168 -48 270 0 99 45
153 45 247 0 86 -43 173 -46 241 -11 50 26 57 25 34 -4 -25 -31 -150 -86 -208
-92 -44 -5 -62 0 -131 31 -111 50 -175 50 -286 0 -97 -44 -146 -43 -247 5 -91
43 -166 43 -252 0 -34 -17 -84 -33 -113 -36 -45 -5 -63 -1 -132 31 -65 29 -93
36 -143 36 -50 0 -78 -7 -143 -36 -69 -32 -87 -36 -132 -31 -29 3 -75 17 -103
31 -28 14 -69 28 -91 32 -46 7 -81 38 -63 56 16 16 81 27 127 21 22 -3 67 -19
100 -36z m-66 -112 c76 -38 151 -35 251 10 49 22 93 35 120 35 27 0 71 -13
120 -35 104 -47 169 -48 260 -3 54 26 77 32 135 32 60 0 78 -4 129 -32 84 -46
159 -45 266 3 101 46 140 45 243 -1 72 -33 86 -36 146 -32 36 3 82 13 101 23
l35 18 -19 -22 c-11 -11 -38 -26 -60 -32 -22 -6 -63 -22 -90 -36 -72 -36 -146
-34 -228 8 -52 27 -75 33 -133 33 -60 1 -80 -4 -139 -33 -93 -46 -147 -46
-247 0 -101 47 -176 47 -268 0 -89 -46 -153 -45 -242 0 -54 27 -75 33 -134 33
-61 1 -79 -3 -137 -33 l-67 -34 -70 62 c-100 89 -93 98 28 36z m364 -97 c54
-28 72 -33 137 -32 65 0 83 4 135 32 84 45 153 45 244 0 56 -28 77 -33 136
-32 58 0 81 6 135 32 90 44 157 44 243 0 85 -44 176 -45 257 -5 l55 28 -35
-31 c-19 -16 -50 -33 -70 -36 -19 -4 -61 -20 -93 -36 -85 -42 -151 -41 -248 3
-101 47 -167 47 -268 0 -98 -45 -154 -45 -242 0 -54 27 -76 33 -134 33 -60 1
-80 -4 -139 -32 -93 -46 -158 -46 -247 -3 -35 17 -74 31 -86 31 -12 0 -34 5
-50 11 l-28 11 60 29 c85 41 154 40 238 -3z m370 -110 c51 -26 74 -32 132 -32
60 -1 80 4 136 32 90 44 157 44 248 0 55 -27 75 -31 130 -30 36 1 75 4 86 7
11 3 -16 -13 -60 -35 -99 -49 -132 -50 -210 -8 -54 29 -68 33 -140 32 -69 0
-89 -4 -145 -32 -88 -43 -138 -43 -240 3 -97 44 -160 46 -238 10 -30 -14 -60
-25 -67 -25 -17 0 -197 91 -191 97 2 2 27 -7 55 -22 79 -39 174 -38 261 4 90
43 157 43 243 -1z m-68 -98 c51 -25 74 -30 134 -30 61 0 81 5 134 32 86 44
158 45 242 1 47 -24 55 -32 40 -36 -135 -42 -393 -58 -540 -34 -108 18 -255
56 -255 67 0 8 38 25 75 34 39 9 110 -5 170 -34z"/>
<path d="M670 2325 l0 -235 2110 0 2110 0 0 235 0 235 -2110 0 -2110 0 0 -235z
m4180 0 l0 -195 -2070 0 -2070 0 0 195 0 195 2070 0 2070 0 0 -195z"/>
<path d="M810 2345 c0 -59 3 -75 14 -75 11 0 16 15 18 53 l3 52 28 -52 c40
-77 57 -71 57 22 0 60 -3 75 -15 75 -11 0 -15 -12 -15 -47 l0 -47 -30 47 c-45
71 -60 63 -60 -28z"/>
<path d="M1150 2410 c0 -5 5 -10 10 -10 6 0 10 5 10 10 0 6 -4 10 -10 10 -5 0
-10 -4 -10 -10z"/>
<path d="M1570 2345 c0 -43 4 -75 10 -75 6 0 10 32 10 75 0 43 -4 75 -10 75
-6 0 -10 -32 -10 -75z"/>
<path d="M1673 2399 c4 -14 11 -48 17 -77 15 -70 35 -68 57 6 l17 57 12 -40
c7 -22 13 -48 13 -57 1 -10 9 -18 19 -18 14 0 21 14 30 60 7 34 15 67 19 75 3
9 -1 15 -10 15 -11 0 -18 -14 -23 -45 -8 -58 -20 -65 -29 -17 -3 20 -10 44
-14 51 -15 24 -39 4 -46 -38 -9 -52 -20 -52 -31 1 -5 23 -15 43 -23 46 -10 3
-12 -2 -8 -19z"/>
<path d="M2320 2406 c-23 -28 -8 -60 33 -70 20 -5 37 -15 37 -23 0 -16 -34
-17 -60 -1 -29 18 -39 -1 -11 -23 28 -23 64 -25 85 -3 30 29 16 56 -37 69 -15
4 -30 11 -33 16 -9 15 27 23 47 11 24 -16 29 -15 29 3 0 31 -68 47 -90 21z"/>
<path d="M2820 2345 c0 -60 3 -75 15 -75 12 0 15 15 15 75 0 60 -3 75 -15 75
-12 0 -15 -15 -15 -75z"/>
<path d="M3070 2405 c-7 -8 -10 -22 -6 -30 3 -9 -1 -26 -9 -39 -17 -26 -11
-53 13 -60 22 -7 98 0 95 8 -2 3 -3 18 -3 32 0 19 -4 25 -15 21 -21 -8 -28 9
-13 32 23 37 -33 71 -62 36z m48 -17 c-6 -18 -28 -21 -28 -4 0 9 7 16 16 16 9
0 14 -5 12 -12z m-4 -89 c-10 -17 -44 -10 -44 9 0 10 3 22 7 25 9 9 44 -23 37
-34z"/>
<path d="M3250 2345 l0 -75 38 0 c56 0 82 23 82 71 0 52 -27 79 -80 79 l-40 0
0 -75z m88 33 c29 -29 7 -78 -35 -78 -21 0 -23 5 -23 45 0 40 2 45 23 45 13 0
28 -5 35 -12z"/>
<path d="M3590 2410 c0 -5 7 -10 15 -10 8 0 15 5 15 10 0 6 -7 10 -15 10 -8 0
-15 -4 -15 -10z"/>
<path d="M4190 2345 l0 -75 44 0 c27 0 51 6 60 16 18 18 21 40 6 49 -6 3 -7
17 -4 31 9 36 -12 54 -62 54 l-44 0 0 -75z m85 30 c0 -5 -15 -11 -32 -13 -25
-3 -33 1 -33 13 0 12 8 16 33 13 17 -2 32 -7 32 -13z m5 -60 c0 -10 -11 -15
-35 -15 -24 0 -35 5 -35 15 0 10 11 15 35 15 24 0 35 -5 35 -15z"/>
<path d="M4730 2395 c0 -22 -3 -25 -25 -19 -34 8 -55 -11 -55 -51 0 -41 15
-54 63 -52 l37 1 0 73 c0 42 -4 73 -10 73 -5 0 -10 -11 -10 -25z m-5 -54 c8
-26 -4 -51 -25 -51 -21 0 -33 25 -25 51 8 24 42 24 50 0z"/>
<path d="M1082 2387 c-5 -7 -6 -34 -3 -62 4 -36 11 -51 24 -53 9 -2 17 1 17 7
0 6 -4 11 -10 11 -15 0 -12 68 2 72 9 3 8 9 -4 21 -12 13 -18 14 -26 4z"/>
<path d="M1993 2389 c-11 -11 -10 -32 3 -96 4 -23 44 -34 44 -13 0 6 -4 10
-10 10 -15 0 -12 68 2 72 9 3 8 9 -4 21 -20 20 -21 20 -35 6z"/>
<path d="M969 2364 c-12 -15 -10 -16 19 -10 41 9 42 -2 1 -16 -25 -8 -30 -15
-27 -37 3 -23 7 -26 46 -27 l42 -1 0 48 c0 33 -4 49 -16 53 -27 10 -51 7 -65
-10z m51 -54 c0 -11 -6 -20 -14 -20 -21 0 -31 21 -15 31 22 14 29 11 29 -11z"/>
<path d="M1150 2325 c0 -30 5 -55 10 -55 6 0 10 25 10 55 0 30 -4 55 -10 55
-5 0 -10 -25 -10 -55z"/>
<path d="M1216 2367 c-38 -28 -13 -97 35 -97 43 0 65 63 33 94 -19 19 -44 20
-68 3z m59 -26 c9 -29 -5 -52 -29 -49 -37 5 -34 68 3 68 11 0 22 -8 26 -19z"/>
<path d="M1330 2323 c0 -63 17 -72 22 -10 2 34 7 42 23 42 16 0 21 -8 23 -42
2 -24 8 -43 13 -43 6 0 9 22 7 53 l-3 52 -42 1 -43 1 0 -54z"/>
<path d="M1459 2364 c-12 -15 -10 -16 19 -10 41 9 42 -2 1 -16 -25 -8 -30 -15
-27 -37 3 -23 7 -26 46 -27 l42 -1 0 48 c0 33 -4 49 -16 53 -27 10 -51 7 -65
-10z m51 -54 c0 -11 -6 -20 -14 -20 -21 0 -31 21 -15 31 22 14 29 11 29 -11z"/>
<path d="M1879 2364 c-12 -15 -10 -16 19 -10 41 9 42 -2 1 -16 -25 -8 -30 -15
-27 -37 3 -23 7 -26 46 -27 l42 -1 0 48 c0 33 -4 49 -16 53 -27 10 -51 7 -65
-10z m51 -54 c0 -11 -6 -20 -14 -20 -21 0 -31 21 -15 31 22 14 29 11 29 -11z"/>
<path d="M2066 2364 c-9 -8 -16 -26 -16 -39 0 -46 53 -72 80 -40 16 19 5 34
-12 17 -17 -17 -38 -15 -38 3 0 10 11 15 35 15 39 0 42 6 19 38 -18 26 -46 28
-68 6z m54 -14 c0 -5 -9 -10 -20 -10 -11 0 -20 5 -20 10 0 6 9 10 20 10 11 0
20 -4 20 -10z"/>
<path d="M2170 2323 c0 -29 5 -53 10 -53 6 0 10 10 10 23 0 38 12 67 26 67 8
0 14 4 14 8 0 5 -13 9 -30 9 -30 0 -30 -1 -30 -54z"/>
<path d="M2440 2344 c0 -56 14 -73 60 -72 l40 0 0 54 c0 41 -4 54 -15 54 -11
0 -15 -12 -15 -45 0 -38 -3 -45 -20 -45 -17 0 -20 7 -20 45 0 33 -4 45 -15 45
-11 0 -15 -11 -15 -36z"/>
<path d="M2570 2304 c0 -59 3 -74 15 -74 9 0 15 9 15 24 0 19 4 23 20 19 29
-8 50 14 50 52 0 41 -15 53 -62 53 l-38 0 0 -74z m75 37 c8 -26 -5 -53 -24
-49 -10 2 -17 15 -19 36 -3 26 0 32 17 32 11 0 22 -8 26 -19z"/>
<path d="M2690 2304 c0 -59 3 -74 15 -74 9 0 15 9 15 25 0 22 3 25 24 19 19
-4 28 0 42 21 16 25 16 30 3 54 -12 21 -23 26 -57 28 l-42 1 0 -74z m75 21 c0
-23 -4 -30 -20 -30 -21 0 -31 25 -21 51 11 28 41 12 41 -21z"/>
<path d="M2880 2334 c24 -55 25 -84 5 -84 -8 0 -15 -4 -15 -10 0 -14 36 -12
47 3 14 18 54 129 49 134 -10 10 -25 -8 -31 -37 -9 -40 -21 -38 -35 5 -6 19
-18 35 -25 35 -11 0 -10 -10 5 -46z"/>
<path d="M3400 2323 c0 -29 5 -53 10 -53 6 0 10 10 10 23 0 38 12 67 26 67 8
0 14 4 14 8 0 5 -13 9 -30 9 -30 0 -30 -1 -30 -54z"/>
<path d="M3493 2373 c-26 -10 -12 -22 19 -16 22 4 29 3 24 -5 -4 -7 -16 -12
-26 -12 -11 0 -24 -9 -30 -21 -17 -30 3 -48 51 -46 39 1 39 2 39 42 0 23 -5
46 -12 53 -12 12 -43 15 -65 5z m45 -60 c-4 -22 -38 -30 -38 -10 0 14 13 24
33 26 5 1 7 -7 5 -16z"/>
<path d="M3590 2325 c0 -42 3 -55 15 -55 12 0 15 13 15 55 0 42 -3 55 -15 55
-12 0 -15 -13 -15 -55z"/>
<path d="M3650 2324 c0 -41 4 -54 15 -54 11 0 15 12 15 46 0 38 3 45 18 42 12
-2 18 -15 20 -46 4 -54 32 -60 32 -6 0 55 -13 71 -60 71 l-40 0 0 -53z"/>
<path d="M3793 2373 c-26 -10 -12 -22 19 -16 22 4 29 3 24 -5 -4 -7 -15 -12
-25 -12 -10 0 -24 -7 -32 -16 -21 -25 1 -49 47 -51 l39 -1 -4 46 c-4 57 -24
73 -68 55z m47 -58 c0 -16 -27 -32 -37 -22 -3 4 -3 13 0 22 8 20 37 20 37 0z"/>
<path d="M3899 2364 c-30 -36 -3 -100 38 -89 17 4 23 1 23 -11 0 -13 -7 -15
-35 -10 -35 7 -49 -6 -19 -18 56 -21 84 6 84 83 l0 58 -40 0 c-22 0 -45 -6
-51 -13z m56 -39 c0 -23 -4 -30 -20 -30 -21 0 -31 25 -21 51 11 28 41 12 41
-21z"/>
<path d="M4026 2364 c-9 -8 -16 -26 -16 -39 0 -46 53 -72 80 -40 16 19 5 34
-12 17 -17 -17 -38 -15 -38 3 0 10 11 15 35 15 39 0 42 6 19 38 -18 26 -46 28
-68 6z m54 -14 c0 -5 -9 -10 -20 -10 -11 0 -20 5 -20 10 0 6 9 10 20 10 11 0
20 -4 20 -10z"/>
<path d="M4346 2364 c-33 -32 -10 -94 35 -94 23 0 59 34 59 55 0 21 -36 55
-59 55 -11 0 -27 -7 -35 -16z m59 -39 c0 -23 -5 -31 -21 -33 -24 -3 -38 20
-28 50 4 13 13 18 27 16 17 -2 22 -10 22 -33z"/>
<path d="M4473 2373 c-26 -10 -12 -22 19 -16 22 4 29 3 24 -5 -4 -7 -16 -12
-26 -12 -11 0 -24 -9 -30 -21 -17 -30 3 -48 51 -46 39 1 39 2 39 42 0 23 -5
46 -12 53 -12 12 -43 15 -65 5z m45 -60 c-4 -22 -38 -30 -38 -10 0 14 13 24
33 26 5 1 7 -7 5 -16z"/>
<path d="M4570 2324 c0 -41 4 -54 15 -54 11 0 15 11 15 39 0 29 6 42 23 54 22
14 21 15 -15 15 l-38 0 0 -54z"/>
</g>
</svg>
